<?xml version="1.0" encoding="UTF-8"?>
<svg id="Livello_2" data-name="Livello 2" xmlns="http://www.w3.org/2000/svg" viewBox="0 0 172.92 159.47">
  <defs>
    <style>
      .cls-1 {
        stroke-width: 0px;
      }
    </style>
  </defs>
  <g id="Livello_1-2" data-name="Livello 1">
    <path class="cls-1" d="m84.49,32.78c.23-2.26.34-4.39.69-6.47.28-1.64,1.32-2.9,2.76-3.79,1.11-.69,2.22-1.36,3.3-2.09,3.32-2.28,4.74-6.75,3.36-10.47-1.43-3.86-5.23-6.24-9.33-5.83-3.57.35-6.81,3.34-7.94,7.32-.18.62-.34,1.26-.62,1.83-.41.85-1.19,1.15-2.07.94-.92-.21-1.53-.76-1.51-1.82.03-2.35.96-4.41,2.21-6.3C78,2.09,81.86-.15,86.63,0c6.2.21,11.28,4.47,12.38,10.65,1.04,5.85-1.35,10.28-6.14,13.56-.36.24-.74.46-1.11.67-3.08,1.78-3.18,2.82-2.8,6.51.04.43.1.86.17,1.39.68.16,1.38.32,2.08.5,4.53,1.18,8.07,3.89,10.28,7.88,3.65,6.6,9.4,10.48,15.91,13.66,11.26,5.51,22.47,11.13,33.68,16.76,2.99,1.5,5.86,3.23,8.19,5.7,2.68,2.83,3.22,6.31,2.98,10-.01.21-.62.4-.97.54-.1.04-.31-.14-.44-.25-2.69-2.15-5.77-2.47-9.14-2.47-44.56.08-89.12.05-133.68.07-.7,0-1.43.25-2.08.54-.87.39-1.65.97-2.5,1.39-.62.31-1.3.49-1.95.72-.1-.71-.28-1.41-.28-2.12-.06-5.67,2.9-9.51,7.65-12.07,6.34-3.41,12.78-6.66,19.18-9.95,7.49-3.85,15.01-7.65,22.48-11.53,4.43-2.3,7.79-5.75,10.3-10.06,2.57-4.43,6.22-7.52,11.27-8.8.83-.21,1.67-.37,2.42-.53Zm66.16,48.39c-.23-.21-.33-.32-.45-.41-1.02-.73-1.99-1.57-3.09-2.17-6.99-3.84-13.94-7.76-21.04-11.4-12.93-6.63-25.95-13.09-38.95-19.59-.35-.18-.98-.06-1.37.14-8.44,4.25-16.89,8.5-25.29,12.82-9.49,4.88-18.98,9.77-28.41,14.77-3.11,1.65-6.03,3.67-9.04,5.52.05.11.11.21.16.32h127.48Z"/>
    <path class="cls-1" d="m150.33,104.77c1.18,0,2.22.05,3.26-.02.8-.05,1.24.27,1.7.91,4.17,5.78,8.37,11.53,12.56,17.29.07.1.18.17.46.43v-18.53h4.61v26.4c-1.39,0-2.73.05-4.07-.04-.33-.02-.7-.43-.93-.75-4.15-5.63-8.28-11.27-12.42-16.92-.1-.13-.12-.31-.18-.47-.11.07-.21.13-.32.2v17.89h-4.68v-26.39Z"/>
    <path class="cls-1" d="m129.11,131.7c-8.14.03-13.6-5.35-13.77-13.14-.2-8.65,5.52-14.45,13.91-14.5,8.99-.05,13.7,6.17,13.76,13.56.07,8.66-5.33,14.06-13.89,14.07Zm.2-23.05c-5.3-.04-9.01,3.47-9.08,9.47-.07,5.41,3.65,9.13,9,9.13,5.47,0,8.99-3.68,8.99-9.4,0-5.53-3.55-9.21-8.9-9.2Z"/>
    <path class="cls-1" d="m78.1,104.86v10.54h11.91v-10.54h4.71v26.28h-4.67v-11.18h-11.89v11.16h-4.94v-26.26h4.88Z"/>
    <path class="cls-1" d="m43.47,131.23c-1.67,0-3.06.05-4.44-.04-.34-.02-.78-.47-.94-.83-.66-1.5-1.25-3.03-1.82-4.57-.24-.65-.55-.93-1.3-.92-2.91.05-5.83.06-8.75,0-.81-.02-1.14.3-1.4,1-.56,1.54-1.16,3.07-1.81,4.58-.14.32-.54.74-.83.75-1.38.08-2.77.04-4.39.04.65-1.7,1.2-3.23,1.8-4.73,2.75-6.82,5.53-13.63,8.23-20.47.38-.96.79-1.33,1.85-1.3,3.07.09,3.06.04,4.19,2.84,2.98,7.38,5.98,14.74,8.96,22.12.18.43.35.86.62,1.53Zm-12.92-19.9c-1.32,3.37-2.52,6.44-3.74,9.54h7.48c-1.24-3.16-2.43-6.21-3.74-9.54Z"/>
    <path class="cls-1" d="m63.23,110.93c-1.81-.76-3.43-1.6-5.14-2.13-2.36-.72-4.63.59-4.84,2.57-.15,1.41.42,2.5,1.87,3.1,1.96.81,4,1.41,5.96,2.21,4.05,1.64,5.57,4.38,4.99,8.77-.41,3.06-3.47,5.78-7.15,6.19-3.87.43-7.43-.31-10.41-3.05-.67-.62-.96-1.08-.31-1.95,1.72-2.31,1.66-2.3,4.06-.8,1.91,1.19,3.94,1.97,6.29,1.41,1.61-.39,2.87-1.61,3.05-3.15.15-1.27-.77-2.56-2.4-3.19-2.02-.78-4.05-1.51-6.09-2.25-4.35-1.58-4.91-5-4.49-8.21.44-3.38,3.36-5.91,6.91-6.2,3.27-.27,6.29.41,8.92,2.52.68.55.84.98.33,1.71-.59.84-1.11,1.73-1.56,2.45Z"/>
    <path class="cls-1" d="m0,131.15v-26.38c.67,0,1.27,0,1.86,0,4.09,0,8.19.02,12.28-.02.91,0,1.18.27,1.18,1.18,0,3.27.04,3.27-3.25,3.27-2.43,0-4.86,0-7.36,0v7h9.25v3.98H4.69v10.96H0Z"/>
    <path class="cls-1" d="m103.53,104.83h4.58v26.32h-4.58v-26.32Z"/>
    <path class="cls-1" d="m92.99,157.67c-1.22-2.12-2.35-4.08-3.67-6.39v7.81h-1.99v-11.84c1.35-.39,2.25-.07,2.88,1.32.79,1.72,1.83,3.33,2.83,5.12.95-1.7,1.91-3.23,2.66-4.85.66-1.43,1.54-2.12,3.21-1.57v11.81h-2.17v-7.22c-.09-.03-.17-.06-.26-.09-1.12,1.9-2.25,3.81-3.49,5.91Z"/>
    <path class="cls-1" d="m75.2,153.65c1-1.79,1.98-3.37,2.79-5.04.63-1.29,1.46-1.84,2.94-1.33v11.81h-1.89v-8.05c-1.39,2.36-2.61,4.42-3.93,6.67-1.24-2.19-2.38-4.2-3.7-6.53v7.9h-2.12v-11.8c1.5-.47,2.45-.1,3.13,1.36.77,1.68,1.79,3.25,2.79,5.01Z"/>
    <path class="cls-1" d="m63.97,153.23c.02,3.7-2.39,6.19-6.04,6.16-4.14-.04-6.1-2.51-6.12-5.96-.01-3.56,1.69-6.36,6.08-6.42,3.77-.06,6.06,2.33,6.08,6.22Zm-2.29-.06c.06-2.35-1.41-3.97-3.63-4.01-2.24-.04-3.94,1.61-4,3.88-.06,2.32,1.52,4.08,3.72,4.15,2.33.07,3.85-1.49,3.92-4.02Z"/>
    <path class="cls-1" d="m118.41,147.14c1.42,0,2.73-.03,4.03,0,2.08.06,3.13.77,3.58,2.55.4,1.6.31,3.5-1.75,4.68.81,1.54,1.62,3.08,2.46,4.67q-2.3.21-3.3-1.67c-.27-.5-.61-.97-.8-1.49-.39-1.1-1.09-1.47-2.32-1.04v4.25h-1.9v-11.96Zm2.01,2.14v3.24c3.16.32,3.55-.12,3.65-1.65.09-1.41-.85-1.79-3.65-1.59Z"/>
    <path class="cls-1" d="m23.29,152.11c.04.79.07,1.38.11,2.09h-4.17v2.84h4.64v2.03h-7.11v-11.87h7.05c.03.62.06,1.25.1,2h-4.69v2.9h4.08Z"/>
    <path class="cls-1" d="m105.2,147.19h7.06v1.98h-4.8v3.01h4.08v2.05h-4.12v2.73h4.83v2.09h-7.04v-11.86Z"/>
    <path class="cls-1" d="m150.3,149.22v3.1h4.23v1.9h-4.22v2.77h4.79v2.06h-7.01v-11.85h6.96v2.02h-4.75Z"/>
    <path class="cls-1" d="m142.46,148.98c-.33.54-.62,1.02-.97,1.6-1.37-.89-2.76-1.84-4.43-1.19-.72.28-1.49.82-1.9,1.46-1.19,1.82-.81,4.45.64,5.59,1.61,1.26,3.46.96,5.48-.94.53.41,1.06.82,1.59,1.23-1.19,2.02-3.82,3.14-6.09,2.63-2.82-.63-4.19-2.22-4.53-5.26-.34-2.99.95-5.54,3.33-6.6,2.28-1.02,5.08-.44,6.89,1.48Z"/>
    <path class="cls-1" d="m46.55,155.5c.49.4.98.81,1.46,1.21-.49,1.87-3.6,2.94-5.61,2.67-2.7-.37-4.47-1.93-4.79-4.38-.16-1.24-.25-2.57.04-3.76,1.18-4.9,6.46-4.91,9.05-3.2,1.33.88.57,1.61-.07,2.5-1.32-.84-2.67-1.83-4.29-1.15-.79.33-1.61.93-2.1,1.62-1.06,1.51-.67,4.17.6,5.29,1.54,1.36,3.47,1.1,5.71-.81Z"/>
    <path class="cls-1" d="m32.83,152.88v1.73h-4.04v-1.73h4.04Z"/>
  </g>
</svg>