<svg xmlns="http://www.w3.org/2000/svg" version="1.1" xmlns:xlink="http://www.w3.org/1999/xlink" width="1000" height="1000"><g clip-path="url(#SvgjsClipPath1097)"><rect width="1000" height="1000" fill="#ffffff"></rect><g transform="matrix(6.61769571835087,0,0,6.61769571835087,0,209.31771557143804)"><svg xmlns="http://www.w3.org/2000/svg" version="1.1" xmlns:xlink="http://www.w3.org/1999/xlink" width="151.11" height="87.85"><svg id="Livello_2" data-name="Livello 2" xmlns="http://www.w3.org/2000/svg" viewBox="0 0 151.11 87.85">
  <defs>
    <style>
      .cls-1 {
        stroke-width: 0px;
      }
    </style>
  <clipPath id="SvgjsClipPath1097"><rect width="1000" height="1000" x="0" y="0" rx="500" ry="500"></rect></clipPath></defs>
  <g id="Livello_1-2" data-name="Livello 1">
    <path class="cls-1" d="m73.31,32.78c.23-2.26.34-4.39.69-6.47.28-1.64,1.32-2.9,2.76-3.79,1.11-.69,2.22-1.36,3.3-2.09,3.32-2.28,4.74-6.75,3.36-10.47-1.43-3.86-5.23-6.24-9.33-5.83-3.57.35-6.81,3.34-7.94,7.32-.18.62-.34,1.26-.62,1.83-.41.85-1.19,1.15-2.07.94-.92-.21-1.53-.76-1.51-1.82.03-2.35.96-4.41,2.21-6.3C66.82,2.09,70.68-.15,75.45,0c6.2.21,11.28,4.47,12.38,10.65,1.04,5.85-1.35,10.28-6.14,13.56-.36.24-.74.46-1.11.67-3.08,1.78-3.18,2.82-2.8,6.51.04.43.1.86.17,1.39.68.16,1.38.32,2.08.5,4.53,1.18,8.07,3.89,10.28,7.88,3.65,6.6,9.4,10.48,15.91,13.66,11.26,5.51,22.47,11.13,33.68,16.76,2.99,1.5,5.86,3.23,8.19,5.7,2.68,2.83,3.22,6.31,2.98,10-.01.21-.62.4-.97.54-.1.04-.31-.14-.44-.25-2.69-2.15-5.77-2.47-9.14-2.47-44.56.08-89.12.05-133.68.07-.7,0-1.43.25-2.08.54-.87.39-1.65.97-2.5,1.39-.62.31-1.3.49-1.95.72-.1-.71-.28-1.41-.28-2.12-.06-5.67,2.9-9.51,7.65-12.07,6.34-3.41,12.78-6.66,19.18-9.95,7.49-3.85,15.01-7.65,22.48-11.53,4.43-2.3,7.79-5.75,10.3-10.06,2.57-4.43,6.22-7.52,11.27-8.8.83-.21,1.67-.37,2.42-.53Zm66.16,48.39c-.23-.21-.33-.32-.45-.41-1.02-.73-1.99-1.57-3.09-2.17-6.99-3.84-13.94-7.76-21.04-11.4-12.93-6.63-25.95-13.09-38.95-19.59-.35-.18-.98-.06-1.37.14-8.44,4.25-16.89,8.5-25.29,12.82-9.49,4.88-18.98,9.77-28.41,14.77-3.11,1.65-6.03,3.67-9.04,5.52.05.11.11.21.16.32h127.48Z"></path>
  </g>
</svg></svg></g></g></svg>